# xmcd CD database file
# Copyright (C) 1993-1996 Ti Kan
#
# Track frame offsets:
#	183
#	8770
#	26333
#	57558
#	74433
#	96183
#	103795
#	124458
#	145383
#	159815
#	175083
#	190833
#	202458
#	217533
#	229008
#	255558
#	272058
#
# Disc length: 3865 seconds
#
# Revision: 1
# Processed by: cddbd v1.5.2PL0 Copyright (c) Steve Scherf et al.
# Submitted via: CDValet v3.30 - Copyright (c) 1997 Greg Leichner
#
DISCID=f20f1711
DTITLE=Cuby and Blizzards - Groeten Uit Grollo/Trippin' Thru' A M
DTITLE=idnight Blues
DYEAR=1967
DGENRE=Blues
TTITLE0=Another Day, Another Road
TTITLE1=The Big Bell
TTITLE2=Somebody Will Know Someday
TTITLE3=So Many Roads
TTITLE4=King Of The World
TTITLE5=Baby, Please Don't Go
TTITLE6=No Shoes
TTITLE7=Another Land
TTITLE8=Checkin' Up On My Baby
TTITLE9=Down The Road
TTITLE10=Window Of My Eyes
TTITLE11=Trippin' Thru' A Midnight Blues
TTITLE12=Big Blue-Eyed Girl
TTITLE13=Going Home
TTITLE14=The Sky Is Crying
TTITLE15=Feelin' Low Down
TTITLE16=Feel So Bad
EXTD=Harry "Cuby" Muskee: Vocals, Harmonica\nEelco Gelling: Lea
EXTD=d Guitar, Bottleneck Guitar\nHerman Brood: Piano\nWilly Mi
EXTD=ddel: Bass Guitar (Tracks 1-8]\nJaap Van Eik: Bass Guitar 
EXTD=(Tracks 9-17]\nHans Waterman: Drums (Tracks 1-8]\nDick Bee
EXTD=kman: Drums (Tracks 9-17]\n
EXTT0=
EXTT1=
EXTT2=
EXTT3=
EXTT4=
EXTT5=
EXTT6=
EXTT7=
EXTT8=
EXTT9=
EXTT10=
EXTT11=
EXTT12=
EXTT13=
EXTT14=
EXTT15=
EXTT16=
PLAYORDER=
